<svg xmlns="http://www.w3.org/2000/svg" viewBox="0 0 512 512" fill="currentColor"><path d="M164.96 399.55c-33.14 0-60.04 26.9-60.04 60.04s26.9 60.04 60.04 60.04 60.04-26.9 60.04-60.04-26.9-60.04-60.04-60.04zm0 90.06c-16.57 0-30.02-13.45-30.02-30.02s13.45-30.02 30.02-30.02 30.02 13.45 30.02 30.02-13.45 30.02-30.02 30.02zM389.44 399.55c-33.14 0-60.04 26.9-60.04 60.04s26.9 60.04 60.04 60.04 60.04-26.9 60.04-60.04-26.9-60.04-60.04-60.04zm0 90.06c-16.57 0-30.02-13.45-30.02-30.02s13.45-30.02 30.02-30.02 30.02 13.45 30.02 30.02-13.45 30.02-30.02 30.02zM462.59 111.64c-4.41-5.73-11.26-9.1-18.52-9.1H131.64l-14.75-80.08C114.43 8.3 101.82-1.62 87.45.25L15.01 9.79C8.71 10.57 4.15 16.28 4.93 22.58c.78 6.3 6.42 10.92 12.78 10.08l72.44-9.54 60.69 329.4c2.46 13.37 14.15 23.04 27.73 23.04h268.83c6.3 0 11.41-5.1 11.41-11.41s-5.1-11.41-11.41-11.41H178.57c-4.53 0-8.42-3.22-9.24-7.68l-9.84-53.41h275.1c13.58 0 25.27-9.67 27.73-23.04l31.53-133.97c1.5-6.36-.14-13.04-4.26-18.4zM454.28 126.4l-31.53 133.97c-.82 4.46-4.72 7.68-9.24 7.68H155.07l-19.36-105.1-.98-5.33-4.99-27.12-.77-4.2h325.31z"/></svg>